<?xml version="1.0" encoding="utf-8"?>
<!-- Generator: Adobe Illustrator 26.3.1, SVG Export Plug-In . SVG Version: 6.00 Build 0)  -->
<svg version="1.1" id="Capa_1" xmlns="http://www.w3.org/2000/svg" xmlns:xlink="http://www.w3.org/1999/xlink" x="0px" y="0px"
	 viewBox="0 0 297 297" style="enable-background:new 0 0 297 297;" xml:space="preserve">
<path d="M242.4,121.3c12,10.9,21.2,21.9,27.2,29.8c-4.7,0.8-10.6,1.5-17.7,1.5c-24.8,0-52.3-7.4-81.5-22
	c-27-13.5-53.2-20.4-77.8-20.4c-10.5,0-20,1.2-28.7,3.3c26.7-21.3,55.1-32.1,84.6-32.1C181.4,81.3,213,94.8,242.4,121.3z
	 M149.6,215.7c-0.3,0-0.5,0-0.8,0c-30.8,0-57-24.5-58.8-55.1c-0.6-10.2,1.5-20.4,6-29.5c14.8,0.4,30.3,3.8,46.4,9.9
	c-6.5,2.5-11.1,8.7-11.1,16.1c0,9.5,7.7,17.3,17.3,17.3c9.5,0,17.3-7.7,17.3-17.3c0-2.2-0.4-4.3-1.2-6.2
	c14.2,6.9,28.1,12.2,41.6,15.9C201.4,193.8,176.9,215.3,149.6,215.7z M24.4,157.4c7.9-7.5,24-19.9,48.4-24.5
	c-2.9,9.3-4.2,19.1-3.7,28.9c0.8,14.2,5.5,27.4,13,38.7c-9.7-4.6-19.1-10.2-28.4-16.9C40.1,173.7,30.1,163.7,24.4,157.4z
	 M243.2,183.6c-9.2,6.7-18.7,12.3-28.3,16.9c5.7-8.7,9.9-18.5,11.8-29.1c8.6,1.4,17.1,2.1,25.3,2.1c0,0,0,0,0,0c1.4,0,2.8,0,4.2-0.1
	C252.2,176.7,247.9,180.1,243.2,183.6z"/>
</svg>
